<?xml version="1.0" encoding="utf-8"?>
<!-- Generator: Adobe Illustrator 19.2.1, SVG Export Plug-In . SVG Version: 6.00 Build 0)  -->
<svg version="1.1" id="Layer_1" xmlns="http://www.w3.org/2000/svg" xmlns:xlink="http://www.w3.org/1999/xlink" x="0px" y="0px"
	 viewBox="0 0 134 43" style="enable-background:new 0 0 134 43;" xml:space="preserve">
<style type="text/css">
	.st0{fill:#FFFFFF;}
</style>
<g>
	<path class="st0" d="M65.8,34.3c-1.2,0.7-2.2,1.3-3.2,1.8s-1.8,1-2.5,1.3c-0.7,0.3-1.4,0.6-1.9,0.8c-0.6,0.2-1.1,0.3-1.5,0.3
		c-0.9,0-1.8-0.3-2.5-0.9c-0.7-0.6-1.3-1.4-1.8-2.5c-0.5-1.1-0.8-2.4-1.1-3.9s-0.4-3.2-0.4-5.1c0-0.7,0-1.5,0.1-2.4
		c0.1-0.8,0.1-1.7,0.3-2.5c-0.4,0-0.7-0.1-0.9-0.1c-0.2,0-0.4-0.1-0.6-0.1c-0.2,0-0.5-0.1-0.9-0.1c-0.4,0-0.9-0.1-1.5-0.2
		c-0.3,0-0.5-0.1-0.7-0.2c-0.2-0.1-0.3-0.2-0.4-0.4c-0.1-0.1-0.1-0.3-0.1-0.4c0-0.2,0-0.3,0-0.4c0-0.2,0.1-0.4,0.4-0.6
		s0.6-0.2,0.9-0.3c0.4-0.1,0.8-0.1,1.2-0.1c0.5,0,0.9,0,1.3,0c0.4,0,0.8,0,1.1,0c0.3,0,0.6,0,0.7,0c0.3-1.7,0.8-3.3,1.3-4.9
		c0.5-1.6,1.1-3,1.7-4.2c0.6-1.2,1.3-2.2,2.1-2.9c0.8-0.7,1.5-1.1,2.4-1.1c0.5,0,1,0.1,1.5,0.4c0.4,0.3,0.8,0.7,1.1,1.2
		c0.3,0.5,0.5,1.1,0.7,1.7c0.2,0.7,0.3,1.4,0.3,2.1c0,0.6-0.1,1.2-0.3,1.9c-0.2,0.7-0.4,1.4-0.7,2.1c-0.3,0.7-0.6,1.4-1,2.1
		c-0.4,0.7-0.8,1.4-1.3,2.1c0.1,0,0.3,0,0.6,0c0.3,0,0.6,0,0.9,0c0.3,0,0.7,0,1.1,0c0.4,0,0.8,0,1.2,0c0.4,0,0.7,0,1,0
		c0.3,0,0.6,0,0.8,0c0.2,0,0.4,0.1,0.5,0.4c0.1,0.2,0.2,0.5,0.2,0.9c0,0.4-0.1,0.8-0.4,1.1c-0.2,0.3-0.5,0.4-0.8,0.4h-7.1
		c-0.4,0.5-0.7,1-1.1,1.5c-0.4,0.5-0.7,0.9-1,1.3c0,0.8-0.1,1.5-0.1,2.3c0,0.3,0,0.7,0,1c0,0.3,0,0.7,0,1c0,0.3,0,0.7,0,1
		c0,0.3,0,0.6,0,0.9c0,0.7,0.1,1.2,0.2,1.7c0.1,0.5,0.3,0.8,0.5,1.1c0.2,0.3,0.5,0.5,0.9,0.6c0.3,0.1,0.7,0.2,1.1,0.2
		c0.3,0,0.6-0.1,1-0.2c0.4-0.1,0.8-0.3,1.3-0.5s1-0.5,1.5-0.8c0.5-0.3,1-0.6,1.5-1s1-0.7,1.4-1.1c0.5-0.4,0.9-0.8,1.2-1.2V34.3z
		 M59.8,10.9c0-0.1,0-0.3,0-0.5s-0.1-0.3-0.1-0.5c-0.1-0.1-0.2-0.3-0.3-0.4c-0.1-0.1-0.3-0.1-0.5-0.1c-0.3,0-0.6,0.3-1,0.9
		c-0.3,0.6-0.6,1.3-0.9,2.2c-0.3,0.9-0.6,1.9-0.9,2.9c-0.3,1.1-0.5,2.1-0.7,3.1c0.2,0,0.4,0,0.6,0.1s0.4,0,0.6,0.1
		c0.4-0.6,0.8-1.3,1.2-2.1c0.4-0.7,0.8-1.5,1.1-2.2c0.3-0.7,0.6-1.4,0.8-2C59.7,11.8,59.8,11.2,59.8,10.9z"/>
	<path class="st0" d="M76.6,24.6c0.4,0.7,0.6,1.5,0.8,2.3s0.3,1.6,0.3,2.3c0,0.7-0.1,1.5-0.2,2.2c-0.2,0.7-0.4,1.5-0.7,2.2
		c-0.3,0.7-0.7,1.3-1.1,1.9s-0.9,1.1-1.5,1.6s-1.2,0.8-1.8,1.1s-1.4,0.4-2.1,0.4c-1.1,0-2-0.2-2.8-0.7c-0.8-0.5-1.4-1.1-1.9-1.9
		c-0.5-0.8-0.9-1.6-1.1-2.6c-0.2-1-0.3-1.9-0.3-2.9c0-1.4,0.2-2.6,0.6-3.8s1-2.2,1.8-3.1s1.7-1.6,2.8-2.1c1.1-0.5,2.3-0.8,3.7-0.8
		c1.2,0,2.3,0.2,3.3,0.5c1,0.4,2,0.9,2.9,1.5s1.7,1.3,2.5,2.1c0.8,0.8,1.5,1.6,2.2,2.4l-0.4,2.6c-0.3-0.4-0.8-0.9-1.4-1.4
		c-0.6-0.5-1.2-1-1.8-1.5c-0.6-0.5-1.3-1-1.9-1.4c-0.6-0.4-1.2-0.8-1.6-1.1L76.6,24.6z M70.9,34.9c0.4,0,0.8-0.2,1.2-0.6
		c0.4-0.4,0.7-1,1-1.6s0.5-1.4,0.7-2.2s0.3-1.5,0.3-2.3c0-0.6,0-1.1-0.1-1.6c-0.1-0.5-0.2-0.9-0.4-1.3c-0.2-0.4-0.4-0.6-0.7-0.9
		c-0.3-0.2-0.6-0.3-1-0.3c-0.5,0-1,0.2-1.4,0.6c-0.5,0.4-0.9,1-1.2,1.7c-0.3,0.7-0.6,1.4-0.8,2.2c-0.2,0.8-0.3,1.6-0.3,2.4
		c0,0.5,0,1,0.1,1.5c0.1,0.5,0.3,0.9,0.5,1.2c0.2,0.3,0.5,0.6,0.8,0.8C70,34.8,70.4,34.9,70.9,34.9z"/>
	<path class="st0" d="M95.3,21.9c0,0.3,0,0.8-0.1,1.4s-0.2,1.2-0.3,1.9s-0.2,1.4-0.4,2.1c-0.1,0.7-0.3,1.4-0.4,2
		c-0.1,0.6-0.2,1.2-0.3,1.7s-0.1,0.8-0.1,1c0,0.3,0,0.7,0,1c0,0.3,0,0.5,0.1,0.8c0.1,0.2,0.2,0.4,0.3,0.5c0.1,0.1,0.3,0.2,0.6,0.2
		c0.3,0,0.6-0.1,1-0.2c0.4-0.1,0.8-0.3,1.2-0.5c0.4-0.2,0.9-0.5,1.3-0.8s0.9-0.6,1.3-0.9c0.4-0.3,0.8-0.6,1.1-1
		c0.3-0.3,0.6-0.6,0.8-0.9c0,0.4,0,0.8,0,1.1s0,0.7,0,1s0,0.6,0,0.9c0,0.3,0,0.7,0,1.1c-0.3,0.3-0.6,0.6-1,0.9
		c-0.4,0.3-0.8,0.6-1.3,0.9c-0.5,0.3-1,0.6-1.6,0.9c-0.5,0.3-1.1,0.5-1.7,0.8c-0.6,0.2-1.1,0.4-1.7,0.5c-0.5,0.1-1.1,0.2-1.5,0.2
		c-0.5,0-0.9-0.1-1.2-0.3s-0.6-0.4-0.9-0.8c-0.2-0.3-0.4-0.7-0.6-1.2c-0.2-0.5-0.3-1-0.4-1.5c-0.4,0.6-0.9,1.1-1.4,1.6
		c-0.5,0.5-1,0.9-1.5,1.3c-0.5,0.4-1,0.6-1.6,0.8c-0.5,0.2-1,0.3-1.5,0.3c-0.4,0-0.8-0.1-1.2-0.2c-0.4-0.1-0.7-0.4-1-0.7
		c-0.3-0.3-0.5-0.7-0.7-1.3c-0.2-0.5-0.2-1.2-0.2-2c0-1,0.1-2.2,0.3-3.6c0.2-1.5,0.5-3.2,0.8-5c0-0.2,0.1-0.4,0.1-0.8s0.2-0.7,0.3-1
		s0.3-0.7,0.4-1.1c0.2-0.4,0.4-0.7,0.6-1c0.2-0.3,0.5-0.6,0.8-0.8c0.3-0.2,0.7-0.3,1.1-0.3c0.7,0,1.1,0.1,1.4,0.3
		c0.3,0.1,0.4,0.3,0.4,0.5c-0.1,0.7-0.2,1.4-0.4,2.2c-0.1,0.8-0.3,1.6-0.4,2.4s-0.3,1.6-0.4,2.4c-0.1,0.8-0.2,1.5-0.3,2.1
		c-0.1,0.6-0.2,1.1-0.2,1.5c-0.1,0.4-0.1,0.6-0.1,0.6c0,0.2,0,0.4,0.1,0.6c0,0.2,0.1,0.4,0.2,0.5c0.1,0.2,0.2,0.3,0.3,0.4
		c0.1,0.1,0.3,0.1,0.5,0.1c0.3,0,0.6-0.1,0.8-0.2c0.3-0.1,0.6-0.3,0.8-0.6s0.5-0.6,0.7-1c0.2-0.4,0.3-0.8,0.4-1.3l1.8-9.4
		c0.1-0.3,0.3-0.5,0.8-0.8s0.9-0.3,1.5-0.3c0.6,0,1.1,0.1,1.5,0.3S95.3,21.5,95.3,21.9z"/>
	<path class="st0" d="M105,38.5c-1.1,0-2.1-0.2-3-0.6c-0.9-0.4-1.6-1-2.2-1.7c-0.6-0.7-1-1.5-1.3-2.4s-0.4-1.9-0.4-2.9
		c0-0.7,0.1-1.5,0.2-2.2s0.4-1.5,0.7-2.3c0.3-0.7,0.7-1.5,1.1-2.1c0.4-0.7,0.9-1.3,1.5-1.8c0.6-0.5,1.2-0.9,1.9-1.2
		c0.7-0.3,1.5-0.5,2.3-0.5c0.7,0,1.4,0.1,2,0.3c0.6,0.2,1.1,0.5,1.5,0.9c0.4,0.4,0.8,0.8,1,1.4c0.2,0.5,0.4,1.1,0.4,1.7
		c0,0.4-0.1,0.8-0.2,1.2s-0.3,0.8-0.5,1.1c-0.2,0.3-0.5,0.6-0.8,0.8c-0.3,0.2-0.7,0.3-1,0.3c-0.6,0-1-0.2-1.1-0.5
		c-0.2-0.3-0.3-0.7-0.3-1.3c0-0.2,0-0.5,0-0.7c0-0.2,0-0.5,0-0.7c0-0.3,0-0.5-0.1-0.7c-0.1-0.2-0.2-0.3-0.4-0.3
		c-0.5,0-0.9,0.1-1.3,0.4c-0.4,0.2-0.7,0.6-0.9,0.9c-0.3,0.4-0.5,0.8-0.6,1.3s-0.3,1-0.4,1.5c-0.1,0.5-0.1,0.9-0.2,1.4
		c0,0.4,0,0.8,0,1.1c0,0.4,0,0.9,0.1,1.4c0.1,0.5,0.2,0.9,0.5,1.3s0.5,0.7,0.9,1c0.4,0.3,0.9,0.4,1.5,0.4c0.6,0,1.2-0.2,2-0.5
		c0.7-0.4,1.4-0.8,2.2-1.4c0.7-0.6,1.4-1.2,2.1-1.8c0.7-0.7,1.2-1.3,1.7-1.9l1.3,2.2c-0.9,1.3-1.9,2.5-3,3.5c-0.5,0.4-1,0.9-1.5,1.3
		c-0.5,0.4-1.1,0.8-1.7,1.1c-0.6,0.3-1.2,0.6-1.8,0.8C106.3,38.4,105.6,38.5,105,38.5z"/>
	<path class="st0" d="M119.3,27c0.5-0.7,1.1-1.4,1.7-2.2c0.6-0.8,1.3-1.5,2-2.1c0.7-0.7,1.4-1.2,2-1.7c0.7-0.4,1.3-0.7,1.9-0.7
		c0.1,0,0.3,0,0.5,0.1s0.4,0.2,0.5,0.3c0.2,0.1,0.3,0.4,0.4,0.6c0.1,0.3,0.2,0.6,0.2,1c0,0.8-0.1,1.7-0.4,2.5
		c-0.2,0.8-0.5,1.6-0.8,2.4c-0.3,0.8-0.5,1.6-0.8,2.4c-0.2,0.8-0.3,1.7-0.3,2.6c0,0.5,0.1,0.9,0.2,1.2s0.3,0.4,0.6,0.4
		c0.3,0,0.6-0.1,0.9-0.2c0.3-0.1,0.7-0.3,1-0.5c0.3-0.2,0.7-0.4,1-0.7c0.3-0.3,0.6-0.5,0.9-0.8c0.7-0.6,1.3-1.3,2-2.2l0.3,4.9
		c-0.2,0.2-0.5,0.4-0.8,0.6c-0.3,0.3-0.7,0.5-1.1,0.8c-0.4,0.3-0.9,0.6-1.3,0.9s-1,0.6-1.5,0.8c-0.5,0.2-1,0.4-1.5,0.6
		c-0.5,0.1-1,0.2-1.4,0.2c-0.7,0-1.3-0.2-1.8-0.5c-0.5-0.4-0.9-0.8-1.2-1.4c-0.3-0.6-0.6-1.2-0.7-1.8c-0.2-0.7-0.2-1.3-0.2-1.9
		c0-0.4,0.1-0.8,0.2-1.3c0.1-0.5,0.2-1,0.4-1.5c0.2-0.5,0.3-1,0.5-1.4c0.2-0.5,0.4-0.9,0.5-1.3c0.2-0.4,0.3-0.7,0.4-0.9
		c0.1-0.2,0.2-0.4,0.2-0.4l-0.4-0.1c-0.2,0.1-0.6,0.5-1.1,1c-0.5,0.6-1.1,1.3-1.7,2.1s-1.3,1.8-2,2.9c-0.7,1.1-1.3,2.1-1.8,3.3
		c-0.3,0.6-0.5,1-0.7,1.5c-0.2,0.4-0.3,0.8-0.5,1c-0.2,0.3-0.4,0.5-0.5,0.6c-0.2,0.1-0.5,0.2-0.8,0.2c-0.4,0-0.7-0.1-1-0.4
		c-0.2-0.2-0.4-0.5-0.5-0.9c-0.1-0.4-0.2-0.8-0.2-1.3s-0.1-1-0.1-1.5c0-0.8,0-1.9,0-3.3c0-1.3,0.1-2.8,0.2-4.5
		c0.1-1.6,0.2-3.4,0.4-5.2c0.2-1.8,0.4-3.6,0.8-5.4c0.3-1.8,0.8-3.4,1.3-5c0.5-1.6,1.1-3,1.9-4.2c0.7-1.2,1.6-2.2,2.6-2.9
		c1-0.7,2.1-1.1,3.4-1.1c0.7,0,1.2,0.1,1.6,0.3c0.4,0.2,0.8,0.5,1,0.8c0.3,0.4,0.4,0.8,0.5,1.3c0.1,0.5,0.1,1.1,0.1,1.7
		c0,0.9-0.1,1.9-0.4,3s-0.6,2.3-1,3.5c-0.4,1.2-0.9,2.4-1.5,3.6c-0.5,1.2-1.1,2.4-1.7,3.6c-0.6,1.2-1.1,2.2-1.7,3.3
		c-0.5,1-1,1.9-1.5,2.7L119.3,27z M121,15.5c0.7-1.9,1.3-3.5,1.6-4.8c0.3-1.3,0.5-2.3,0.5-2.9c0-0.9-0.1-1.4-0.4-1.4
		c-0.3,0-0.8,0.5-1.4,1.6c-0.6,1.1-1.4,2.6-2.2,4.6c-0.2,0.7-0.4,1.4-0.6,2.1c-0.2,0.7-0.3,1.5-0.5,2.2c-0.1,0.7-0.3,1.4-0.4,2.1
		c-0.1,0.7-0.2,1.4-0.3,2c-0.2,1.5-0.4,2.9-0.5,4.3c0.3-0.8,0.7-1.6,1.1-2.5c0.4-0.9,0.8-1.8,1.2-2.7c0.4-0.9,0.7-1.7,1.1-2.5
		C120.5,16.7,120.7,16,121,15.5z"/>
</g>
<path class="st0" d="M41.1,0H9C7.3,0,6,1.3,6,3L1,40c0,1.6,1.3,3,3,3h32.1c1.7,0,3-1.4,3-3l5-37C44.1,1.3,42.8,0,41.1,0z M29.9,8.5
	c-0.1,0.4-0.1,0.9-0.1,1.5c-0.2,1.4-0.4,2.6-0.6,3.7c-0.2,1.1-0.4,2.4-0.6,3.8c-0.2,1.4-0.4,2.8-0.6,4.3c-0.2,1.4-0.4,2.8-0.6,4.2
	c-0.2,1.4-0.4,2.6-0.5,3.6c-0.1,0.2-0.1,0.6-0.2,1c-0.1,0.5-0.2,1-0.4,1.5c-0.2,0.5-0.3,1.1-0.6,1.7c-0.2,0.6-0.5,1.1-0.8,1.5
	c-0.3,0.5-0.7,0.8-1.1,1.1c-0.4,0.3-0.9,0.4-1.4,0.4c-0.6,0-1.2,0-1.8-0.1c-0.6-0.1-1-0.2-1.4-0.4c-0.4-0.2-0.7-0.4-0.9-0.6
	c-0.2-0.3-0.3-0.6-0.3-0.9c0-0.2,0-0.3,0-0.5c0-0.2,0.1-0.3,0.2-0.6c0.3-1.1,0.6-2.3,0.9-3.4c0.3-1.2,0.6-2.4,0.9-3.6
	c0.3-1.2,0.5-2.4,0.8-3.6c0.2-1.2,0.5-2.3,0.7-3.3c0.5-2.5,0.9-4.9,1.3-7.3c-0.3,0.3-0.6,0.6-0.9,0.9c-0.3,0.3-0.7,0.6-1,0.9
	c-0.3,0.3-0.6,0.5-0.9,0.6c-0.3,0.2-0.5,0.2-0.6,0.2c-1.8,0-3.2-0.2-4.1-0.5c-1-0.3-1.4-0.6-1.4-1c0-0.2,0.2-0.4,0.6-0.5
	c0.4-0.1,1-0.2,1.9-0.2c0.2,0,0.5-0.2,0.9-0.5c0.4-0.3,0.9-0.7,1.5-1.2c0.6-0.5,1.2-1,1.9-1.5c0.7-0.6,1.4-1.1,2.2-1.5
	c0.7-0.5,1.5-0.9,2.3-1.2c0.8-0.3,1.5-0.5,2.2-0.5c1,0,1.7,0.1,2.1,0.2C29.8,6.9,30,7.1,30,7.4C30,7.7,29.9,8,29.9,8.5z"/>
</svg>
